<svg xmlns="http://www.w3.org/2000/svg">
<path d="M0 43.240555C0 53.92644,7.7037773 65.85487,27.833002 65.85487C53.677933 65.85487,80.7654 44.73161,80.7654 22.862823C80.7654 8.200794,68.33996 0,52.932404 0C28.827038 0,0 20.377733,0 43.240555Z" fill="#000"/>
<path d="M152.9324 0C128.82704 0,100 20.129225,100 43.240555C100 53.92644,107.70378 65.85487,127.833 65.85487C153.67793 65.85487,180.76541 44.73161,180.76541 22.862823C180.76541 8.200794,168.33997 0,152.9324 0ZM118.63817 54.17495C110.43738 54.17495,108.697815 47.46521,108.697815 45.22863C108.697815 33.05169,150.44731 11.67992,162.12723 11.67992C168.09146 11.67992,172.0676 15.159046,172.0676 20.626244C172.0676 33.05169,130.06958 54.17495,118.63817 54.17495Z" fill="#000"/>
</svg>